/* XPM */
static char *e719a2a64a214389b86cc0af2d64bc83Aq2FozayhFetFnMp[] = {
/* columns rows colors chars-per-pixel */
"32 32 62 1 ",
"  c None",
". c #00A779",
"X c #00A87D",
"o c #00A97D",
"O c #00A97E",
"+ c #00A880",
"@ c #00A882",
"# c #00A984",
"$ c #00A886",
"% c #00A889",
"& c #00A98C",
"* c #00A98E",
"= c #00A991",
"- c #00A992",
"; c #00A995",
": c #00A899",
"> c #00AA98",
", c #00AA9B",
"< c #00A99C",
"1 c #00AA9C",
"2 c #00A89E",
"3 c #00A9A0",
"4 c #00AAA5",
"5 c #00ABAB",
"6 c #00A9AE",
"7 c #00AAB0",
"8 c #00A9B3",
"9 c #00ABB3",
"0 c #00ABB4",
"q c #00ABB5",
"w c #00AAB6",
"e c #00ABB6",
"r c #00AAB8",
"t c #00ABB8",
"y c #00AAB9",
"u c #00ABBA",
"i c #00ABBB",
"p c #00ACBB",
"a c #00ABBE",
"s c #00AABF",
"d c #00ACC4",
"f c #00ACC5",
"g c #00AAC8",
"h c #00ABC8",
"j c #00ABCA",
"k c #00ACCE",
"l c #00ACCF",
"z c #00ACD2",
"x c #00ABD7",
"c c #00ACD4",
"v c #00ADD4",
"b c #00ACD6",
"n c #00ABD9",
"m c #00ADD8",
"M c #00ADD9",
"N c #00ACDB",
"B c #00ADDB",
"V c #00ADDC",
"C c #00ADDE",
"Z c #00ACDF",
"A c #00ADE0",
"S c #00ACE1",
/* pixels */
"                                ",
"                                ",
"                                ",
"                                ",
"                                ",
"                                ",
"                                ",
"                                ",
"                                ",
"         spe6      &$o.         ",
"        jf  98    =&  o.        ",
"        kj   0    >   oo        ",
"        zk   e8   1>  $#        ",
"         z    p8  21  &         ",
"         bb   yy     ;=         ",
"          b    py    ,          ",
"          MM    y   43          ",
"           Mb      65           ",
"            C      0            ",
"            SM    sp            ",
"             S    f             ",
"             SS  lh             ",
"              SCMz              ",
"                                ",
"                                ",
"                                ",
"                                ",
"                                ",
"                                ",
"                                ",
"                                ",
"                                "
};
