/* XPM */
static char *_01a893747ae4e16f981bc9a67c04581qigcEXAC9IYsZZYT[] = {
/* columns rows colors chars-per-pixel */
"64 64 200 2 ",
"   c None",
".  c #00A577",
"X  c #00A677",
"o  c #00A579",
"O  c #00A778",
"+  c #00A57B",
"@  c #00A37F",
"#  c #00A57D",
"$  c #00A67E",
"%  c #00A77F",
"&  c #00A87B",
"*  c #00A97B",
"=  c #00AA7B",
"-  c #00AA7C",
";  c #00AA7D",
":  c #00A97F",
">  c #00AA7E",
",  c #00AA7F",
"<  c #00A785",
"1  c #00A587",
"2  c #00A686",
"3  c #00A980",
"4  c #00AA80",
"5  c #00AA81",
"6  c #00A982",
"7  c #00AA82",
"8  c #00A984",
"9  c #00A985",
"0  c #00AA84",
"q  c #00AA87",
"w  c #00A78D",
"e  c #00AA88",
"r  c #00AA8A",
"t  c #00A98C",
"y  c #00A88F",
"u  c #00AB8F",
"i  c #00A593",
"p  c #00A793",
"a  c #00AA91",
"s  c #00A892",
"d  c #00A993",
"f  c #00AB92",
"g  c #00A895",
"h  c #00AA94",
"j  c #00AB94",
"k  c #00A897",
"l  c #00AB97",
"z  c #00A798",
"x  c #00A69A",
"c  c #00A79D",
"v  c #00A79E",
"b  c #00A998",
"n  c #00AB99",
"m  c #00A99A",
"M  c #00AA9A",
"N  c #00A99D",
"B  c #00AB9C",
"V  c #00AB9E",
"C  c #00AA9F",
"Z  c #00AB9F",
"A  c #00A8A1",
"S  c #00AAA0",
"D  c #00AAA1",
"F  c #00A8A3",
"G  c #00ACA4",
"H  c #00ACA6",
"J  c #00A6AE",
"K  c #00A7AE",
"L  c #00A8A8",
"P  c #00ABA8",
"I  c #00A9AC",
"U  c #00A9AE",
"Y  c #00A9AF",
"T  c #00AAAF",
"R  c #00ABAF",
"E  c #00ACAC",
"W  c #00ACAE",
"Q  c #00A7B4",
"!  c #00A6B7",
"~  c #00A8B1",
"^  c #00AAB0",
"/  c #00ABB0",
"(  c #00ABB2",
")  c #00ABB3",
"_  c #00ACB0",
"`  c #00ACB3",
"'  c #00A8B4",
"]  c #00A9B4",
"[  c #00AAB4",
"{  c #00ABB5",
"}  c #00A8B7",
"|  c #00AAB6",
" . c #00ABB6",
".. c #00AAB7",
"X. c #00ACB4",
"o. c #00ACB5",
"O. c #00ACB6",
"+. c #00ACB7",
"@. c #00A9B9",
"#. c #00AAB8",
"$. c #00ABB9",
"%. c #00A8BA",
"&. c #00ABBA",
"*. c #00ACB8",
"=. c #00ACB9",
"-. c #00ADB9",
";. c #00ADBA",
":. c #00ACBB",
">. c #00ADBB",
",. c #00ABBC",
"<. c #00AABD",
"1. c #00ABBD",
"2. c #00AABE",
"3. c #00AABF",
"4. c #00ACBC",
"5. c #00ADBC",
"6. c #00ACBD",
"7. c #00ADBD",
"8. c #00ACBE",
"9. c #00ADBF",
"0. c #00AAC1",
"q. c #00A8C3",
"w. c #00A9C3",
"e. c #00ADC0",
"r. c #00ADC1",
"t. c #00ADC3",
"y. c #00A9C5",
"u. c #00ACC4",
"i. c #00ADC4",
"p. c #00ACC5",
"a. c #00ADC7",
"s. c #00AAC8",
"d. c #00A8CA",
"f. c #00ABCB",
"g. c #00ADC8",
"h. c #00ADC9",
"j. c #00ADCA",
"k. c #00ACCB",
"l. c #00A9CC",
"z. c #00A9CF",
"x. c #00AACF",
"c. c #00ABCF",
"v. c #00ACCC",
"b. c #00ADCD",
"n. c #00ADCE",
"m. c #00ADCF",
"M. c #00A7D1",
"N. c #00A9D0",
"B. c #00ABD1",
"V. c #00AAD2",
"C. c #00ABD3",
"Z. c #00ACD0",
"A. c #00AED0",
"S. c #00AED1",
"D. c #00ACD2",
"F. c #00ADD2",
"G. c #00AED3",
"H. c #00A9D5",
"J. c #00AAD4",
"K. c #00ABD4",
"L. c #00ABD5",
"P. c #00ADD4",
"I. c #00ACD5",
"U. c #00ADD5",
"Y. c #00AED5",
"T. c #00ADD7",
"R. c #00AED6",
"E. c #00AED7",
"W. c #00A9D9",
"Q. c #00AAD8",
"!. c #00A8DA",
"~. c #00AADA",
"^. c #00ABDA",
"/. c #00ACD8",
"(. c #00ADD8",
"). c #00ACD9",
"_. c #00ADD9",
"`. c #00AED8",
"'. c #00AED9",
"]. c #00ADDB",
"[. c #00AEDA",
"{. c #00AEDB",
"}. c #00ABDC",
"|. c #00ABDE",
" X c #00ABDF",
".X c #00ADDC",
"XX c #00AEDC",
"oX c #00AEDD",
"OX c #00ACDE",
"+X c #00ADDE",
"@X c #00AEDF",
"#X c #00AAE0",
"$X c #00ABE0",
"%X c #00ADE1",
"&X c #00AEE0",
"*X c #00AEE1",
"=X c #00ADE2",
"-X c #00ACE3",
";X c #00ADE3",
":X c #00AEE3",
/* pixels */
"                                                                                                                                ",
"                                                                                                                                ",
"                                                                                                                                ",
"                                                                                                                                ",
"                                                                                                                                ",
"                                                                                                                                ",
"                                                                                                                                ",
"                                                                                                                                ",
"                                                                                                                                ",
"                                                                                                                                ",
"                                                                                                                                ",
"                                                                                                                                ",
"                                                                                                                                ",
"                                                                                                                                ",
"                                                                                                                                ",
"                                                                                                                                ",
"                                                                                                                                ",
"                                                                                                                                ",
"                                      %.%.=.O.) I                             1 9 7 7 * .                                       ",
"                                    0.r.5.5.=.O.` )                         y e 9 7 7 - - o                                     ",
"                                  y.k.p.r.!   ' O.` W                     f y e 1   3 $ - - .                                   ",
"                                  v.p.0.          O.` I                 f l f           $ - *                                   ",
"                                d.v.k.            ' O.)                 m l f             7 - o                                 ",
"                                v.G.v.              ' ) )               m m i             7 7 $                                 ",
"                                V.U.v.              ! O.O.I             N B m             9 7 $                                 ",
"                                  U.U.l.              %.O.`             N N m           1 e 9                                   ",
"                                  U.R.G.                =.O.)             D B m         y e 9                                   ",
"                                    U.U.v.              %.=.O.            N N x       y u e                                     ",
"                                    H.U.U.                =.=.'                       h f w                                     ",
"                                      (.U.G.              %.=.=.                    m l h                                       ",
"                                      H.(.(.V.              5.5.%.                x B m i                                       ",
"                                        (.(.U.              %.5.=.'               D B m                                         ",
"                                          oX(.V.              5.5.=.            D G D                                           ",
"                                          (.oXU.                5.=.            L G D                                           ",
"                                            oXoXH.                            I W P                                             ",
"                                            W.oX(.V.                          ` W L                                             ",
"                                              #XoX(.                        ' ` )                                               ",
"                                              W.&XoXH.                    %.O.O.J                                               ",
"                                                |.&XoX                    5.=.O.                                                ",
"                                                  &XoXW.                0.r.5.                                                  ",
"                                                  #X&X&X                p.r.5.                                                  ",
"                                                    &X&X|.            d.k.p.                                                    ",
"                                                    #X:X&XW.        d.v.k.0.                                                    ",
"                                                      :X:X&XW.    v.G.G.d.                                                      ",
"                                                        :X:X&XoX(.(.U.G.                                                        ",
"                                                          #X&X&X@X(.U.                                                          ",
"                                                                                                                                ",
"                                                                                                                                ",
"                                                                                                                                ",
"                                                                                                                                ",
"                                                                                                                                ",
"                                                                                                                                ",
"                                                                                                                                ",
"                                                                                                                                ",
"                                                                                                                                ",
"                                                                                                                                ",
"                                                                                                                                ",
"                                                                                                                                ",
"                                                                                                                                ",
"                                                                                                                                ",
"                                                                                                                                ",
"                                                                                                                                ",
"                                                                                                                                ",
"                                                                                                                                "
};
